HIERARCHY
ROOT Hips
{
	OFFSET 0.000000 71.427986 0.000000
	CHANNELS 6 Xposition Yposition Zposition Xrotation Yrotation Zrotation
	JOINT Pelvis
	{
		OFFSET 0.000000 0.000000 0.000000
		CHANNELS 3 Xrotation Yrotation Zrotation
		JOINT LeftUpLeg
		{
			OFFSET 6.797100 -2.508499 -1.318700
			CHANNELS 3 Xrotation Yrotation Zrotation
			JOINT LeftLeg
			{
				OFFSET 0.069008 -29.241863 0.690200
				CHANNELS 3 Xrotation Yrotation Zrotation
				JOINT LeftFoot
				{
					OFFSET -0.069008 -29.568123 -0.266800
					CHANNELS 3 Xrotation Yrotation Zrotation
					JOINT LeftToeBase
					{
						OFFSET 3.145500 -8.631000 16.059900
						CHANNELS 3 Xrotation Yrotation Zrotation
						End Site
						{
							OFFSET 0.000000 18.501587 0.000000
						}
					}
				}
			}
			JOINT Left_ShortSleeve
			{
				OFFSET 0.265923 -10.480953 1.153800
				CHANNELS 3 Xrotation Yrotation Zrotation
				End Site
				{
					OFFSET 1.725763 19.823879 0.000000
				}
			}
		}
		JOINT RightUpLeg
		{
			OFFSET -6.797100 -2.508499 -1.318700
			CHANNELS 3 Xrotation Yrotation Zrotation
			JOINT RightLeg
			{
				OFFSET -0.082453 -29.241932 0.688000
				CHANNELS 3 Xrotation Yrotation Zrotation
				JOINT RightFoot
				{
					OFFSET 0.082453 -29.568058 -0.264600
					CHANNELS 3 Xrotation Yrotation Zrotation
					JOINT RightToeBase
					{
						OFFSET -3.115300 -8.682800 16.113400
						CHANNELS 3 Xrotation Yrotation Zrotation
						End Site
						{
							OFFSET 0.000000 18.567114 0.000000
						}
					}
				}
			}
			JOINT Right_ShortSleeve
			{
				OFFSET -0.265923 -10.480953 1.153800
				CHANNELS 3 Xrotation Yrotation Zrotation
				End Site
				{
					OFFSET -1.725766 19.823910 0.000000
				}
			}
		}
	}
	JOINT Spine
	{
		OFFSET 0.000000 13.368103 0.470500
		CHANNELS 3 Xrotation Yrotation Zrotation
		JOINT Spine1
		{
			OFFSET 0.147000 13.837402 0.538800
			CHANNELS 3 Xrotation Yrotation Zrotation
			JOINT Spine2
			{
				OFFSET 0.168000 16.242897 -1.435500
				CHANNELS 3 Xrotation Yrotation Zrotation
				JOINT Neck
				{
					OFFSET 0.217200 18.631500 -1.679100
					CHANNELS 3 Xrotation Yrotation Zrotation
					JOINT Head
					{
						OFFSET 0.000000 6.599396 1.385900
						CHANNELS 3 Xrotation Yrotation Zrotation
						JOINT Hat
						{
							OFFSET -0.532200 27.220596 -10.096100
							CHANNELS 3 Xrotation Yrotation Zrotation
							End Site
							{
								OFFSET 0.000000 22.029861 0.000000
							}
						}
						JOINT HairD
						{
							OFFSET -10.777400 17.437393 -1.325900
							CHANNELS 3 Xrotation Yrotation Zrotation
							JOINT HairD1
							{
								OFFSET -3.290299 -11.051193 1.062200
								CHANNELS 3 Xrotation Yrotation Zrotation
								End Site
								{
									OFFSET 0.000000 11.579437 0.000000
								}
							}
						}
						JOINT HairB
						{
							OFFSET -10.777400 17.437393 1.467900
							CHANNELS 3 Xrotation Yrotation Zrotation
							JOINT HairB1
							{
								OFFSET -1.561200 -12.956299 3.590200
								CHANNELS 3 Xrotation Yrotation Zrotation
								End Site
								{
									OFFSET 0.000000 13.534866 0.000000
								}
							}
						}
						JOINT HairA
						{
							OFFSET 9.713100 17.437393 1.467900
							CHANNELS 3 Xrotation Yrotation Zrotation
							JOINT HairA1
							{
								OFFSET 1.561200 -12.956299 3.590200
								CHANNELS 3 Xrotation Yrotation Zrotation
								End Site
								{
									OFFSET 0.000000 13.534866 0.000000
								}
							}
						}
						JOINT HairC
						{
							OFFSET 9.713100 17.437393 -1.325900
							CHANNELS 3 Xrotation Yrotation Zrotation
							JOINT HairC1
							{
								OFFSET 3.290300 -11.051193 1.062200
								CHANNELS 3 Xrotation Yrotation Zrotation
								End Site
								{
									OFFSET 0.000000 11.579437 0.000000
								}
							}
						}
					}
				}
				JOINT LeftShoulder
				{
					OFFSET 5.101800 15.108002 -2.763700
					CHANNELS 3 Xrotation Yrotation Zrotation
					JOINT LeftArm
					{
						OFFSET 9.825497 2.506317 -1.597400
						CHANNELS 3 Xrotation Yrotation Zrotation
						JOINT LeftForeArm
						{
							OFFSET 21.966244 0.000000 0.000000
							CHANNELS 3 Xrotation Yrotation Zrotation
							JOINT LeftHand
							{
								OFFSET 33.879036 0.000000 0.000000
								CHANNELS 3 Xrotation Yrotation Zrotation
								JOINT LeftHandThumb1
								{
									OFFSET 6.715286 -2.359680 3.363841
									CHANNELS 3 Xrotation Yrotation Zrotation
									JOINT LeftHandThumb2
									{
										OFFSET 2.507072 -1.447464 1.447461
										CHANNELS 3 Xrotation Yrotation Zrotation
										JOINT LeftHandThumb3
										{
											OFFSET 2.898338 -1.673355 1.673357
											CHANNELS 3 Xrotation Yrotation Zrotation
											End Site
											{
												OFFSET -0.295959 3.727692 -0.131651
											}
										}
									}
								}
								JOINT LeftHandIndex1
								{
									OFFSET 14.190811 -0.254547 3.840278
									CHANNELS 3 Xrotation Yrotation Zrotation
									JOINT LeftHandIndex2
									{
										OFFSET 3.551727 0.000000 -0.000000
										CHANNELS 3 Xrotation Yrotation Zrotation
										JOINT LeftHandIndex3
										{
											OFFSET 2.894196 0.000000 0.000000
											CHANNELS 3 Xrotation Yrotation Zrotation
											End Site
											{
												OFFSET -1.000603 2.690872 0.366626
											}
										}
									}
								}
								JOINT LeftHandMiddle1
								{
									OFFSET 13.776489 0.000000 0.000000
									CHANNELS 3 Xrotation Yrotation Zrotation
									JOINT LeftHandMiddle2
									{
										OFFSET 3.438232 0.000000 0.000000
										CHANNELS 3 Xrotation Yrotation Zrotation
										JOINT LeftHandMiddle3
										{
											OFFSET 3.691551 0.000000 0.000000
											CHANNELS 3 Xrotation Yrotation Zrotation
											End Site
											{
												OFFSET -1.082298 3.499527 0.457670
											}
										}
									}
								}
								JOINT LeftHandRing1
								{
									OFFSET 13.966164 -0.268127 -3.067488
									CHANNELS 3 Xrotation Yrotation Zrotation
									JOINT LeftHandRing2
									{
										OFFSET 3.162567 0.000000 0.000000
										CHANNELS 3 Xrotation Yrotation Zrotation
										JOINT LeftHandRing3
										{
											OFFSET 3.324348 0.000000 0.000000
											CHANNELS 3 Xrotation Yrotation Zrotation
											End Site
											{
												OFFSET -0.861900 3.184998 0.405154
											}
										}
									}
								}
								JOINT LeftHandPinky1
								{
									OFFSET 13.131393 -0.168503 -5.746925
									CHANNELS 3 Xrotation Yrotation Zrotation
									JOINT LeftHandPinky2
									{
										OFFSET 2.849182 0.000000 0.000000
										CHANNELS 3 Xrotation Yrotation Zrotation
										JOINT LeftHandPinky3
										{
											OFFSET 2.805038 0.000000 0.000000
											CHANNELS 3 Xrotation Yrotation Zrotation
											End Site
											{
												OFFSET -0.882500 2.642609 0.325652
											}
										}
									}
								}
							}
							JOINT Left_Sleeve
							{
								OFFSET 6.592125 -0.646545 0.805568
								CHANNELS 3 Xrotation Yrotation Zrotation
								End Site
								{
									OFFSET -0.000179 20.275787 -0.000000
								}
							}
						}
					}
				}
				JOINT RightShoulder
				{
					OFFSET -5.731700 15.108002 -2.763700
					CHANNELS 3 Xrotation Yrotation Zrotation
					JOINT RightArm
					{
						OFFSET -9.825497 2.506317 -1.597400
						CHANNELS 3 Xrotation Yrotation Zrotation
						JOINT RightForeArm
						{
							OFFSET -21.966242 0.000000 0.000000
							CHANNELS 3 Xrotation Yrotation Zrotation
							JOINT RightHand
							{
								OFFSET -33.879032 0.000000 0.000000
								CHANNELS 3 Xrotation Yrotation Zrotation
								JOINT RightHandThumb1
								{
									OFFSET -6.715286 -2.359680 3.363841
									CHANNELS 3 Xrotation Yrotation Zrotation
									JOINT RightHandThumb2
									{
										OFFSET -2.507072 -1.447464 1.447461
										CHANNELS 3 Xrotation Yrotation Zrotation
										JOINT RightHandThumb3
										{
											OFFSET -2.898338 -1.673355 1.673357
											CHANNELS 3 Xrotation Yrotation Zrotation
											End Site
											{
												OFFSET 0.295959 3.727692 -0.131651
											}
										}
									}
								}
								JOINT RightHandIndex1
								{
									OFFSET -14.190811 -0.254547 3.840278
									CHANNELS 3 Xrotation Yrotation Zrotation
									JOINT RightHandIndex2
									{
										OFFSET -3.551727 0.000000 -0.000000
										CHANNELS 3 Xrotation Yrotation Zrotation
										JOINT RightHandIndex3
										{
											OFFSET -2.894196 0.000000 0.000000
											CHANNELS 3 Xrotation Yrotation Zrotation
											End Site
											{
												OFFSET 1.000603 2.690872 0.366626
											}
										}
									}
								}
								JOINT RightHandMiddle1
								{
									OFFSET -13.776489 0.000000 0.000000
									CHANNELS 3 Xrotation Yrotation Zrotation
									JOINT RightHandMiddle2
									{
										OFFSET -3.438232 0.000000 0.000000
										CHANNELS 3 Xrotation Yrotation Zrotation
										JOINT RightHandMiddle3
										{
											OFFSET -3.691551 0.000000 0.000000
											CHANNELS 3 Xrotation Yrotation Zrotation
											End Site
											{
												OFFSET 1.082298 3.499527 0.457670
											}
										}
									}
								}
								JOINT RightHandRing1
								{
									OFFSET -13.966164 -0.268127 -3.067488
									CHANNELS 3 Xrotation Yrotation Zrotation
									JOINT RightHandRing2
									{
										OFFSET -3.162567 0.000000 0.000000
										CHANNELS 3 Xrotation Yrotation Zrotation
										JOINT RightHandRing3
										{
											OFFSET -3.324348 0.000000 0.000000
											CHANNELS 3 Xrotation Yrotation Zrotation
											End Site
											{
												OFFSET 0.861900 3.184998 0.405154
											}
										}
									}
								}
								JOINT RightHandPinky1
								{
									OFFSET -13.131393 -0.168503 -5.746925
									CHANNELS 3 Xrotation Yrotation Zrotation
									JOINT RightHandPinky2
									{
										OFFSET -2.849182 0.000000 0.000000
										CHANNELS 3 Xrotation Yrotation Zrotation
										JOINT RightHandPinky3
										{
											OFFSET -2.805038 0.000000 0.000000
											CHANNELS 3 Xrotation Yrotation Zrotation
											End Site
											{
												OFFSET 0.882500 2.642609 0.325652
											}
										}
									}
								}
							}
							JOINT Right_Sleeve
							{
								OFFSET -6.592125 -0.646545 0.805568
								CHANNELS 3 Xrotation Yrotation Zrotation
								End Site
								{
									OFFSET 0.000179 20.275787 -0.000000
								}
							}
						}
					}
				}
				JOINT Bind_Right_JacketString
				{
					OFFSET -3.534800 11.969597 7.200700
					CHANNELS 3 Xrotation Yrotation Zrotation
					JOINT Bind_Right_JacketString1
					{
						OFFSET -0.319900 -6.102600 2.794100
						CHANNELS 3 Xrotation Yrotation Zrotation
						End Site
						{
							OFFSET 0.000000 6.719452 0.000000
						}
					}
				}
				JOINT Bind_Left_JacketString
				{
					OFFSET 2.904800 11.969597 7.200700
					CHANNELS 3 Xrotation Yrotation Zrotation
					JOINT Bind_Left_JacketString1
					{
						OFFSET 0.364800 -5.904503 3.186800
						CHANNELS 3 Xrotation Yrotation Zrotation
						End Site
						{
							OFFSET 0.000000 6.719513 0.000000
						}
					}
				}
				JOINT HairE
				{
					OFFSET 5.915200 17.612701 -11.592200
					CHANNELS 3 Xrotation Yrotation Zrotation
					JOINT HairE1
					{
						OFFSET 0.289200 -7.171898 -1.284500
						CHANNELS 3 Xrotation Yrotation Zrotation
						End Site
						{
							OFFSET 0.000000 7.291756 0.000000
						}
					}
				}
				JOINT HairF
				{
					OFFSET -0.864800 17.612701 -11.592200
					CHANNELS 3 Xrotation Yrotation Zrotation
					JOINT HairF1
					{
						OFFSET 0.000000 -14.087097 -2.127501
						CHANNELS 3 Xrotation Yrotation Zrotation
						End Site
						{
							OFFSET 0.000000 14.246841 0.000000
						}
					}
				}
				JOINT HairG
				{
					OFFSET -8.087700 17.612701 -11.592200
					CHANNELS 3 Xrotation Yrotation Zrotation
					JOINT HairG1
					{
						OFFSET -0.293600 -6.081398 -0.910100
						CHANNELS 3 Xrotation Yrotation Zrotation
						End Site
						{
							OFFSET 0.000000 6.156120 0.000000
						}
					}
				}
			}
		}
	}
	JOINT Pouch
	{
		OFFSET 0.000000 4.394501 10.847300
		CHANNELS 3 Xrotation Yrotation Zrotation
		End Site
		{
			OFFSET 0.000000 21.880577 0.000000
		}
	}
	JOINT Bag
	{
		OFFSET -13.229000 4.813004 -0.593300
		CHANNELS 3 Xrotation Yrotation Zrotation
		End Site
		{
			OFFSET 0.000000 21.880577 0.000000
		}
	}
	JOINT OccupyGuyFacialAnim_Joint
	{
		OFFSET 1.000000 -70.206398 -1.655000
		CHANNELS 3 Xrotation Yrotation Zrotation
		End Site
		{
			OFFSET 0.000000 21.880577 0.000000
		}
	}
}
MOTION
Frames: 4
Frame Time: 0.016667
-0.165918 40.851387 -13.604847 35.852394 -0.148517 2.401859 0.000003 -0.000000 0.000000 -93.481603 -4.099538 31.832124 124.242179 5.390867 -0.078702 -43.789005 -13.798395 -22.189558 -0.000002 0.000001 0.000000 0.000001 0.000001 0.000001 -98.685613 -8.783759 -11.506605 130.814269 6.442119 -0.958712 -43.631587 4.351441 -12.899258 -0.000001 -0.000000 -0.000000 -0.000000 0.000001 0.000001 11.085077 0.226966 -2.296650 22.176798 0.436129 -4.312041 22.176805 0.436130 -4.312046 -24.273818 -2.101650 -0.458652 -32.969897 -5.781658 3.191221 0.000002 0.000000 -0.000000 0.000002 0.000000 -0.000000 0.000002 0.000000 -0.000000 0.000002 0.000000 0.000000 0.000000 -0.000000 0.000000 0.000002 0.000000 0.000000 0.000000 -0.000000 0.000000 0.000002 0.000000 -0.000000 0.000002 0.000000 -0.000000 0.640943 -3.294368 -0.953792 -15.835092 -34.689960 -16.373895 4.580984 -102.085285 2.759706 44.263253 29.883580 20.699389 11.125201 -10.607963 5.635070 13.047552 13.034998 -0.568280 -0.000000 0.000001 0.000001 2.762768 -9.722646 -4.298515 -0.734995 0.012634 -24.937164 0.000001 0.000001 0.000002 0.691171 0.688889 -10.668330 -1.829434 -2.017376 -30.196027 -0.000000 0.000004 -0.000001 0.170519 9.516299 -23.800783 -0.026552 -3.190980 -36.374801 0.000001 0.000000 0.000000 0.671143 29.060833 -33.488124 0.187204 -6.380940 -42.445575 0.000001 -0.000000 0.000001 0.000000 -0.000000 -0.000002 5.833064 29.728006 10.839898 -38.904344 17.802016 21.911281 10.180159 60.700349 -18.967925 39.144897 -25.749552 -58.258064 -28.903086 10.876041 -5.700015 1.644013 -0.336629 -1.627246 -0.000000 -0.000001 0.000001 -1.509171 6.134593 4.269182 0.284808 -2.247832 5.347516 0.000000 -0.000001 0.000000 -0.686667 -1.935921 4.591087 -0.718849 0.493059 15.506158 0.000000 -0.000001 -0.000001 2.037181 -12.730994 11.026377 0.036371 2.329718 17.761664 -0.000001 -0.000000 -0.000000 6.528013 -28.103850 17.554862 -0.488532 6.557329 19.904218 0.000001 0.000002 0.000001 -0.000002 0.000000 -0.000001 0.000000 0.000000 0.000001 0.000000 0.000000 0.000001 0.000000 0.000000 0.000000 0.000000 0.000000 0.000000 0.000000 0.000000 0.000001 0.000000 0.000000 0.000001 0.000000 0.000000 0.000000 0.000000 0.000000 0.000000 0.000000 0.000000 0.000001 0.000000 0.000000 0.000001 0.000003 -0.000000 0.000000 0.000003 -0.000000 0.000000 0.000003 -0.000000 0.000000 
-0.344238 39.813419 -13.508461 37.246336 1.514315 2.267155 0.000002 -0.000000 -0.000000 -90.809810 -4.421101 34.366647 124.489924 3.795735 -0.140026 -46.891468 -12.268313 -25.171976 -0.000000 0.000002 -0.000000 -0.000002 0.000000 -0.000000 -100.812192 -7.377994 -10.486115 133.341125 4.392043 -0.521115 -44.919736 3.361706 -10.965560 0.000002 0.000000 -0.000000 0.000001 0.000000 -0.000000 10.523386 0.043072 -2.222594 21.050926 0.321395 -3.994273 21.050945 0.321396 -3.994274 -21.738776 -2.217309 -0.825595 -34.315663 -6.604940 3.109562 0.000001 -0.000000 0.000000 0.000001 -0.000000 0.000000 0.000001 -0.000000 0.000000 0.000001 -0.000000 0.000001 -0.000001 -0.000000 0.000000 0.000001 -0.000000 0.000001 -0.000001 -0.000000 0.000000 0.000001 -0.000000 0.000000 0.000001 -0.000000 0.000000 0.342998 -2.949976 -1.792631 -16.403954 -37.051259 -18.318924 2.482649 -100.497587 0.138989 47.566377 27.306015 17.670582 11.188567 -11.111342 6.012806 11.620602 14.042180 -0.106121 0.000001 -0.000000 -0.000001 3.446699 -9.799938 -1.845127 -0.760096 -0.016583 -25.262904 0.000002 0.000000 -0.000002 0.747685 0.207626 -8.580260 -1.876520 -2.032494 -30.535143 -0.000000 0.000002 0.000001 0.085836 9.613130 -22.173794 -0.014832 -3.214906 -36.633815 0.000000 0.000001 0.000000 -0.053529 29.550510 -31.903394 0.218712 -6.412751 -42.751500 -0.000000 0.000000 -0.000001 0.000000 -0.000002 -0.000003 5.774375 29.321381 12.382899 -39.766126 19.774407 22.445564 8.302410 57.691657 -16.019521 40.345248 -23.597513 -59.666224 -31.298153 12.346714 -7.537879 1.803070 -0.055170 -1.277175 -0.000001 -0.000001 0.000001 -1.571546 6.221617 2.837446 0.274703 -2.142571 6.406114 0.000003 0.000001 0.000000 -0.726559 -1.842131 4.353597 -0.734669 0.515554 15.825675 -0.000000 0.000000 -0.000004 2.017722 -12.871180 10.562713 0.036062 2.354651 18.021454 0.000002 -0.000000 -0.000006 6.575664 -28.588175 17.176295 -0.497823 6.579887 20.205335 0.000002 0.000001 -0.000003 -0.000003 0.000001 -0.000002 -0.000000 -0.000000 0.000001 -0.000000 -0.000000 0.000000 -0.000000 -0.000000 0.000001 -0.000000 -0.000000 0.000001 -0.000000 -0.000000 0.000001 -0.000000 -0.000000 0.000001 -0.000000 -0.000000 0.000001 -0.000000 -0.000000 0.000001 -0.000000 -0.000000 0.000001 -0.000000 -0.000000 0.000001 0.000002 -0.000000 -0.000000 0.000002 -0.000000 -0.000000 0.000002 -0.000000 -0.000000 
-0.495856 38.862843 -13.460228 38.508617 2.969420 2.086039 0.000004 0.000000 -0.000000 -89.900350 -5.006286 36.061251 124.858290 2.484451 -0.221203 -48.582132 -11.864115 -27.052363 -0.000000 0.000001 -0.000000 -0.000003 0.000001 -0.000000 -102.754834 -6.471933 -9.614197 135.560486 2.565025 -0.269163 -46.134489 2.454498 -9.340209 0.000001 0.000000 -0.000000 0.000003 -0.000000 -0.000001 9.882354 -0.088726 -2.086348 19.767505 0.228245 -3.621571 19.767508 0.228247 -3.621570 -19.301408 -2.327293 -1.169202 -35.559754 -7.352564 3.025416 -0.000001 -0.000000 0.000000 -0.000001 -0.000000 0.000000 -0.000001 -0.000000 0.000000 -0.000001 -0.000000 0.000000 -0.000001 0.000000 0.000000 -0.000001 -0.000000 0.000000 -0.000001 0.000000 0.000000 -0.000001 -0.000000 0.000000 -0.000001 -0.000000 0.000000 0.020295 -2.572768 -2.855807 -17.018357 -39.190475 -20.988087 0.982566 -97.925091 -1.973599 50.723485 23.806858 15.248138 11.263552 -11.680982 6.443931 9.567423 15.252069 0.466263 -0.000002 -0.000001 -0.000002 4.242352 -9.839366 0.880815 -0.788973 -0.049313 -25.632419 0.000003 0.000000 -0.000002 0.850830 -0.260218 -6.350882 -1.929572 -2.048773 -30.911947 0.000002 -0.000002 0.000000 0.007494 9.769577 -20.426804 -0.002225 -3.242825 -36.940136 -0.000001 0.000000 -0.000002 -0.979638 29.990432 -30.003921 0.254547 -6.449630 -43.107909 0.000001 0.000000 0.000001 0.000000 -0.000001 -0.000000 5.824607 28.867795 13.884147 -39.853109 20.536063 22.693075 6.574777 55.607732 -13.152802 41.209977 -21.195291 -61.261169 -33.487017 13.898151 -9.125741 2.049868 0.409609 -0.803319 0.000001 0.000000 -0.000000 -1.697774 6.426645 1.495232 0.265373 -2.026625 7.570312 0.000001 0.000000 -0.000001 -0.774792 -1.732072 4.150758 -0.747660 0.537066 16.125691 0.000002 -0.000000 0.000001 1.998261 -12.963657 10.222175 0.036636 2.380255 18.283467 -0.000003 0.000001 -0.000001 6.654031 -29.138502 16.814420 -0.510103 6.601666 20.511406 0.000001 0.000000 -0.000001 0.000001 -0.000001 0.000002 -0.000000 -0.000000 -0.000001 -0.000000 0.000000 -0.000001 -0.000000 -0.000000 -0.000001 -0.000000 -0.000000 -0.000001 -0.000000 -0.000000 -0.000001 -0.000000 0.000000 -0.000001 -0.000000 -0.000000 -0.000001 -0.000000 -0.000000 -0.000001 -0.000000 -0.000000 -0.000001 -0.000000 0.000000 -0.000001 0.000004 0.000000 -0.000000 0.000004 0.000000 -0.000000 0.000004 0.000000 -0.000000 
-0.600688 38.012230 -13.507145 39.623464 4.203276 1.869501 -0.000002 0.000000 -0.000000 -91.802763 -6.014430 36.280507 126.162979 2.168824 -0.271157 -48.925086 -12.907951 -27.474665 -0.000000 0.000001 -0.000000 0.000002 0.000003 -0.000001 -104.625691 -6.123446 -9.227163 137.406658 1.067988 -0.190619 -47.290789 1.599314 -8.103075 0.000002 0.000000 -0.000000 -0.000002 -0.000001 0.000000 9.203355 -0.175379 -1.876578 18.408710 0.142228 -3.175027 18.408700 0.142229 -3.175025 -17.035892 -2.424129 -1.481488 -36.678741 -8.013700 2.944158 0.000003 0.000000 -0.000000 0.000003 0.000000 -0.000000 0.000003 0.000000 -0.000000 0.000003 0.000000 -0.000000 0.000001 0.000000 -0.000000 0.000003 0.000000 -0.000000 0.000001 0.000000 -0.000000 0.000003 0.000000 -0.000000 0.000003 0.000000 -0.000000 -0.284227 -2.135469 -4.160776 -17.677334 -40.741921 -24.178929 -0.080146 -94.687869 -3.561584 53.370159 19.581275 13.653745 11.343366 -12.273098 6.900009 6.708306 16.475110 1.460186 -0.000001 0.000003 -0.000001 5.234342 -9.820460 4.263369 -0.819166 -0.080987 -26.000244 -0.000000 -0.000000 -0.000000 1.074208 -0.480998 -4.034312 -1.984931 -2.064367 -31.305134 0.000004 -0.000003 0.000000 -0.066304 10.084470 -18.359070 0.011155 -3.271435 -37.253409 -0.000001 0.000000 -0.000002 -2.129072 30.421348 -27.650972 0.291436 -6.488807 -43.471258 -0.000001 -0.000000 0.000001 0.000001 -0.000001 0.000002 5.973609 28.508233 15.261349 -39.460595 20.823684 22.407597 5.371286 54.315652 -10.616661 41.903935 -19.438136 -62.692749 -34.145594 14.695666 -8.490549 2.362728 0.806152 -0.204921 -0.000000 0.000002 0.000001 -1.881058 6.920231 0.918375 0.258627 -1.909440 8.741233 0.000003 -0.000001 -0.000002 -0.827275 -1.607688 4.041269 -0.757716 0.556782 16.394288 0.000000 -0.000000 0.000003 1.986216 -12.991879 10.062156 0.038638 2.401852 18.499115 -0.000001 0.000001 -0.000004 6.755811 -29.733521 16.485442 -0.523437 6.614802 20.722049 0.000000 -0.000002 -0.000002 -0.000001 0.000001 0.000000 0.000000 0.000000 0.000001 -0.000000 0.000000 -0.000000 0.000000 0.000000 0.000000 0.000000 0.000000 0.000000 0.000000 0.000000 0.000001 -0.000000 0.000000 0.000000 0.000000 0.000000 0.000000 0.000000 0.000000 0.000000 0.000000 0.000000 0.000001 -0.000000 0.000000 0.000000 -0.000002 0.000000 -0.000000 -0.000002 0.000000 -0.000000 -0.000002 0.000000 -0.000000 
